<svg width="642" height="171" viewBox="0 0 642 171" fill="none" xmlns="http://www.w3.org/2000/svg">
<path d="M198.134 114.924C192.18 114.924 186.978 113.897 182.529 111.844C178.149 109.722 174.727 106.779 172.263 103.015C169.799 99.1819 168.567 94.6988 168.567 89.5655C168.567 83.4055 169.97 77.93 172.776 73.1389C175.582 68.2794 179.518 64.4465 184.583 61.6403C189.647 58.8341 195.534 57.431 202.241 57.431C207.922 57.431 212.782 58.4577 216.82 60.511C220.926 62.5643 224.075 65.4389 226.265 69.1349C228.524 72.7625 229.653 77.006 229.653 81.8655C229.653 83.5082 229.55 85.0824 229.345 86.5882C229.14 88.0939 228.866 89.5655 228.524 91.0028H183.864L185.712 80.7362H219.489L211.378 83.7135C211.926 81.0442 211.823 78.8198 211.07 77.0402C210.386 75.1922 209.188 73.7891 207.477 72.8309C205.834 71.8042 203.781 71.2909 201.317 71.2909C198.169 71.2909 195.568 72.078 193.515 73.6522C191.53 75.2264 190.024 77.3824 188.997 80.1202C188.039 82.7895 187.56 85.6984 187.56 88.8468C187.56 92.6797 188.621 95.5201 190.743 97.3681C192.864 99.1476 196.047 100.037 200.29 100.037C202.754 100.037 205.15 99.661 207.477 98.9081C209.873 98.0868 211.96 96.9574 213.74 95.5201L221.85 107.737C218.36 110.338 214.561 112.186 210.454 113.281C206.416 114.376 202.31 114.924 198.134 114.924ZM267.403 114.924C261.448 114.924 256.281 113.863 251.9 111.741C247.52 109.62 244.098 106.676 241.634 102.912C239.238 99.0792 238.04 94.6303 238.04 89.5655C238.04 83.4055 239.512 77.93 242.455 73.1389C245.398 68.2794 249.47 64.4465 254.672 61.6403C259.874 58.8341 265.829 57.431 272.536 57.431C278.833 57.431 284.274 58.7656 288.86 61.435C293.514 64.1043 296.868 67.8003 298.921 72.5229L282.289 80.4282C281.263 77.8273 279.791 75.9451 277.875 74.7816C276.027 73.618 273.905 73.0362 271.509 73.0362C268.909 73.0362 266.547 73.7207 264.425 75.0896C262.372 76.39 260.764 78.1695 259.6 80.4282C258.437 82.6868 257.855 85.3562 257.855 88.4361C257.855 91.653 258.779 94.2539 260.627 96.2388C262.475 98.2236 265.178 99.2161 268.737 99.2161C271.27 99.2161 273.529 98.6685 275.513 97.5734C277.567 96.4099 279.312 94.5277 280.749 91.9268L295.02 100.551C292.351 105.068 288.586 108.593 283.727 111.125C278.936 113.658 273.494 114.924 267.403 114.924ZM332.976 114.924C327.021 114.924 321.82 113.897 317.371 111.844C312.99 109.722 309.568 106.779 307.104 103.015C304.64 99.1819 303.408 94.6988 303.408 89.5655C303.408 83.4055 304.811 77.93 307.617 73.1389C310.424 68.2794 314.359 64.4465 319.424 61.6403C324.489 58.8341 330.375 57.431 337.083 57.431C342.763 57.431 347.623 58.4577 351.661 60.511C355.768 62.5643 358.916 65.4389 361.106 69.1349C363.365 72.7625 364.494 77.006 364.494 81.8655C364.494 83.5082 364.392 85.0824 364.186 86.5882C363.981 88.0939 363.707 89.5655 363.365 91.0028H318.705L320.553 80.7362H354.33L346.22 83.7135C346.767 81.0442 346.665 78.8198 345.912 77.0402C345.227 75.1922 344.03 73.7891 342.319 72.8309C340.676 71.8042 338.623 71.2909 336.159 71.2909C333.01 71.2909 330.409 72.078 328.356 73.6522C326.371 75.2264 324.865 77.3824 323.839 80.1202C322.88 82.7895 322.401 85.6984 322.401 88.8468C322.401 92.6797 323.462 95.5201 325.584 97.3681C327.706 99.1476 330.888 100.037 335.132 100.037C337.596 100.037 339.991 99.661 342.319 98.9081C344.714 98.0868 346.802 96.9574 348.581 95.5201L356.692 107.737C353.201 110.338 349.403 112.186 345.296 113.281C341.258 114.376 337.151 114.924 332.976 114.924ZM417.028 57.431C421.751 57.431 425.755 58.4234 429.04 60.4083C432.325 62.3247 434.653 65.1994 436.021 69.0323C437.459 72.7967 437.596 77.5193 436.432 83.2002L430.272 114H410.766L416.515 85.0482C417.268 81.4891 417.028 78.7513 415.796 76.8349C414.633 74.9184 412.442 73.9602 409.226 73.9602C405.94 73.9602 403.168 74.9869 400.91 77.0402C398.651 79.0935 397.077 82.242 396.187 86.4855L390.643 114H371.136L382.224 58.355H400.704L397.522 73.9602L395.058 69.4429C397.727 65.2678 401.012 62.2221 404.914 60.3056C408.883 58.3892 412.922 57.431 417.028 57.431ZM468.494 114.924C463.566 114.924 458.911 114.411 454.531 113.384C450.151 112.289 446.763 110.988 444.367 109.483L451.451 95.8281C454.052 97.4708 457.098 98.737 460.588 99.6267C464.079 100.517 467.467 100.961 470.752 100.961C473.969 100.961 476.262 100.619 477.631 99.9347C479 99.1819 479.684 98.1894 479.684 96.9574C479.684 95.8623 478.966 95.0752 477.528 94.5961C476.159 94.0486 474.38 93.6037 472.19 93.2615C469.999 92.9192 467.672 92.4743 465.208 91.9268C462.813 91.3792 460.52 90.5921 458.33 89.5655C456.139 88.5388 454.326 87.1015 452.888 85.2535C451.519 83.3371 450.835 80.8046 450.835 77.6562C450.835 73.2073 452.135 69.4771 454.736 66.4656C457.337 63.4541 460.862 61.1954 465.311 59.6896C469.828 58.1839 474.893 57.431 480.506 57.431C484.475 57.431 488.308 57.8074 492.004 58.5603C495.7 59.3132 498.917 60.4083 501.655 61.8456L494.776 75.5002C492.038 73.8576 489.232 72.7625 486.357 72.2149C483.483 71.5989 480.779 71.2909 478.247 71.2909C475.03 71.2909 472.737 71.7016 471.368 72.5229C469.999 73.3442 469.315 74.3367 469.315 75.5002C469.315 76.5269 469.999 77.3482 471.368 77.9642C472.806 78.5118 474.585 78.9909 476.707 79.4015C478.897 79.7438 481.224 80.1886 483.688 80.7362C486.152 81.2153 488.445 81.9682 490.567 82.9948C492.757 84.0215 494.537 85.4588 495.905 87.3068C497.343 89.1548 498.061 91.653 498.061 94.8014C498.061 99.1819 496.727 102.878 494.057 105.889C491.457 108.901 487.932 111.16 483.483 112.665C479.034 114.171 474.038 114.924 468.494 114.924ZM538.396 114.924C532.442 114.924 527.24 113.897 522.791 111.844C518.411 109.722 514.988 106.779 512.524 103.015C510.06 99.1819 508.828 94.6988 508.828 89.5655C508.828 83.4055 510.232 77.93 513.038 73.1389C515.844 68.2794 519.78 64.4465 524.844 61.6403C529.909 58.8341 535.795 57.431 542.503 57.431C548.184 57.431 553.043 58.4577 557.082 60.511C561.188 62.5643 564.337 65.4389 566.527 69.1349C568.785 72.7625 569.915 77.006 569.915 81.8655C569.915 83.5082 569.812 85.0824 569.607 86.5882C569.401 88.0939 569.128 89.5655 568.785 91.0028H524.126L525.974 80.7362H559.751L551.64 83.7135C552.188 81.0442 552.085 78.8198 551.332 77.0402C550.648 75.1922 549.45 73.7891 547.739 72.8309C546.096 71.8042 544.043 71.2909 541.579 71.2909C538.431 71.2909 535.83 72.078 533.776 73.6522C531.791 75.2264 530.286 77.3824 529.259 80.1202C528.301 82.7895 527.822 85.6984 527.822 88.8468C527.822 92.6797 528.883 95.5201 531.004 97.3681C533.126 99.1476 536.309 100.037 540.552 100.037C543.016 100.037 545.412 99.661 547.739 98.9081C550.134 98.0868 552.222 96.9574 554.002 95.5201L562.112 107.737C558.622 110.338 554.823 112.186 550.716 113.281C546.678 114.376 542.571 114.924 538.396 114.924ZM607.459 114.924C601.573 114.924 596.44 113.863 592.059 111.741C587.679 109.62 584.291 106.676 581.895 102.912C579.5 99.0792 578.302 94.6303 578.302 89.5655C578.302 83.4055 579.774 77.93 582.717 73.1389C585.66 68.2794 589.698 64.4465 594.831 61.6403C599.965 58.8341 605.851 57.431 612.49 57.431C618.445 57.431 623.578 58.4919 627.89 60.6136C632.27 62.667 635.658 65.5758 638.054 69.3403C640.449 73.1047 641.647 77.5535 641.647 82.6868C641.647 88.8468 640.176 94.3566 637.232 99.2161C634.289 104.076 630.251 107.908 625.118 110.715C619.985 113.521 614.098 114.924 607.459 114.924ZM608.589 99.4214C611.19 99.4214 613.482 98.7712 615.467 97.4708C617.452 96.1019 618.992 94.2539 620.087 91.9268C621.251 89.5997 621.833 86.8619 621.833 83.7135C621.833 80.6335 620.909 78.0669 619.061 76.0136C617.281 73.9602 614.714 72.9336 611.361 72.9336C608.76 72.9336 606.467 73.5838 604.482 74.8842C602.497 76.1847 600.923 78.0326 599.759 80.4282C598.664 82.7553 598.117 85.4931 598.117 88.6415C598.117 91.9268 599.041 94.5619 600.889 96.5468C602.737 98.4632 605.303 99.4214 608.589 99.4214Z" fill="#260000"/>
<rect x="30" y="102" width="112" height="48" rx="8" fill="white"/>
<path d="M114 114H59.9603C51.5199 114 47.2997 114 43.5783 115.44C41.6332 116.192 39.8087 117.225 38.1628 118.506C35.0138 120.956 32.8425 124.575 28.5 131.812V49.875C28.5 36.44 28.5 29.7225 32.6737 25.5487C36.8475 21.375 43.565 21.375 57 21.375H114C127.435 21.375 134.153 21.375 138.326 25.5487C142.5 29.7225 142.5 36.44 142.5 49.875V85.5C142.5 98.935 142.5 105.653 138.326 109.826C134.153 114 127.435 114 114 114Z" fill="#4F0000"/>
<path d="M142.5 85.5V121.125C142.5 134.56 142.5 141.278 138.326 145.451C134.153 149.625 127.435 149.625 114 149.625H46.3125C36.4749 149.625 28.5 141.65 28.5 131.812V131.812C28.5 121.975 36.4749 114 46.3125 114H114C127.435 114 134.153 114 138.326 109.826C142.5 105.653 142.5 98.935 142.5 85.5V49.875C142.5 36.44 142.5 29.7225 138.326 25.5487C134.153 21.375 127.435 21.375 114 21.375H57C43.565 21.375 36.8475 21.375 32.6737 25.5487C28.5 29.7225 28.5 36.44 28.5 49.875V131.812" stroke="#222222" stroke-width="8.55"/>
<path d="M52.6427 107L67.0159 35.1337H97.7131C106.953 35.1337 114.071 37.1528 119.068 41.191C124.132 45.2292 126.665 50.8417 126.665 58.0283C126.665 64.0514 125.193 69.3215 122.25 73.8389C119.376 78.2877 115.269 81.7441 109.93 84.2081C104.592 86.6721 98.2948 87.9041 91.0398 87.9041H67.7346L78.5145 79.1775L72.9705 107H52.6427ZM97.7131 107L83.0318 80.8201H104.078L118.965 107H97.7131ZM78.0012 81.5388L70.9172 72.1962H91.9638C96.4811 72.1962 99.9717 71.1353 102.436 69.0136C104.9 66.8918 106.132 63.8802 106.132 59.9789C106.132 56.9674 105.139 54.743 103.154 53.3056C101.169 51.8683 98.3975 51.1497 94.8384 51.1497H75.2292L86.1118 41.499L78.0012 81.5388Z" fill="#FFA927"/>
</svg>
