<svg width="78" height="93" viewBox="0 0 78 93" fill="none" xmlns="http://www.w3.org/2000/svg">
<rect x="3.94727" y="59.3684" width="70.7368" height="30.3158" rx="5.05263" fill="white"/>
<path d="M57 66.9474H22.8696C17.5389 66.9474 14.8735 66.9474 12.5231 67.8566C11.2947 68.3318 10.1424 68.9842 9.10283 69.7931C7.11398 71.3408 5.74265 73.6263 3 78.1974V26.4474C3 17.9621 3 13.7195 5.63604 11.0834C8.27208 8.44739 12.5147 8.44739 21 8.44739H57C65.4853 8.44739 69.7279 8.44739 72.364 11.0834C75 13.7195 75 17.9621 75 26.4474V48.9474C75 57.4327 75 61.6753 72.364 64.3113C69.7279 66.9474 65.4853 66.9474 57 66.9474Z" fill="#4F0000"/>
<path d="M75 48.9474V71.4474C75 79.9327 75 84.1753 72.364 86.8113C69.7279 89.4474 65.4853 89.4474 57 89.4474H14.25C8.0368 89.4474 3 84.4106 3 78.1974V78.1974C3 71.9842 8.0368 66.9474 14.25 66.9474H57C65.4853 66.9474 69.7279 66.9474 72.364 64.3113C75 61.6753 75 57.4327 75 48.9474V26.4474C75 17.9621 75 13.7195 72.364 11.0834C69.7279 8.44739 65.4853 8.44739 57 8.44739H21C12.5147 8.44739 8.27208 8.44739 5.63604 11.0834C3 13.7195 3 17.9621 3 26.4474V78.1974" stroke="#222222" stroke-width="5.4"/>
<path d="M18.2479 63L27.3258 17.6108H46.7134C52.5492 17.6108 57.0449 18.886 60.2005 21.4365C63.3994 23.9869 64.9988 27.5316 64.9988 32.0705C64.9988 35.8745 64.0694 39.2031 62.2106 42.0561C60.395 44.8659 57.8014 47.0489 54.4296 48.6051C51.0578 50.1613 47.0809 50.9394 42.4987 50.9394H27.7797L34.588 45.4279L31.0866 63H18.2479ZM46.7134 63L37.4411 46.4654H50.7336L60.1357 63H46.7134ZM34.2638 46.9193L29.7897 41.0187H43.0823C45.9353 41.0187 48.14 40.3486 49.6962 39.0086C51.2524 37.6685 52.0305 35.7665 52.0305 33.3025C52.0305 31.4005 51.4037 29.9956 50.15 29.0878C48.8964 28.18 47.1457 27.7261 44.8979 27.7261H32.5131L39.3863 21.631L34.2638 46.9193Z" fill="#FFA927"/>
</svg>
